<svg width="96" height="111" viewBox="0 0 96 111" fill="none" xmlns="http://www.w3.org/2000/svg">
<path d="M87.6035 47.7265C87.5985 47.5087 87.5579 47.2912 87.4811 47.0831L70.5612 1.30036C70.2725 0.51902 69.5271 0 68.6943 0C67.8615 0 67.1158 0.51902 66.8271 1.30058L56.294 29.8C50.6947 28.9135 44.8639 28.9174 39.2704 29.7961L28.7395 1.30058C28.4507 0.51902 27.7051 0 26.8723 0C26.0395 0 25.2938 0.51902 25.0051 1.30058L8.08547 47.0831C8.01173 47.2834 7.97086 47.4914 7.96307 47.6993C2.74756 54.4582 1.63664e-09 62.2377 1.63664e-09 70.2911C-0.000216257 92.5859 21.4312 110.724 47.773 110.724C74.1148 110.724 95.5462 92.5859 95.5462 70.2914C95.5462 62.2494 92.8054 54.4796 87.6035 47.7265Z" fill="#333333"/>
<path d="M47.773 106.743C23.626 106.743 3.98088 90.3911 3.98088 70.2914C3.98088 62.6985 6.74899 55.3505 11.9848 49.0446C12.4388 48.4984 12.5642 47.7559 12.325 47.0968L26.8721 7.73299L36.1104 32.7316C36.4476 33.6453 37.3924 34.1779 38.3498 33.9971C44.504 32.825 51.0443 32.8211 57.2142 34.001C58.1649 34.1799 59.1173 33.6492 59.4536 32.7355L68.6938 7.73299L83.2314 47.0678C82.9786 47.7345 83.1012 48.4908 83.561 49.0448C88.7968 55.3527 91.5649 62.6988 91.5649 70.2916C91.5651 90.3911 71.92 106.743 47.773 106.743Z" fill="#D8D8D8"/>
<path d="M29.8791 58.9914C32.0747 58.9914 33.8602 57.2049 33.8602 55.0103C33.8602 52.8157 32.0747 51.0292 29.8791 51.0292C27.6834 51.0292 25.8979 52.8157 25.8979 55.0103C25.8979 57.2051 27.6834 58.9914 29.8791 58.9914Z" fill="#333333"/>
<path d="M65.7084 51.0292C63.5128 51.0292 61.7273 52.8157 61.7273 55.0103C61.7273 57.2049 63.5128 58.9914 65.7084 58.9914C67.9041 58.9914 69.6895 57.2049 69.6895 55.0103C69.6895 52.8157 67.9041 51.0292 65.7084 51.0292Z" fill="#333333"/>
<path d="M65.7084 78.8969C65.7084 83.2883 62.1365 86.8591 57.7462 86.8591C53.4898 86.8591 50.0325 83.4946 49.8236 79.2884L55.5456 67.844C55.8537 67.2278 55.8206 66.4949 55.458 65.9078C55.0955 65.3207 54.455 64.9632 53.7649 64.9632H41.8216C41.1315 64.9632 40.4909 65.3209 40.1285 65.9078C39.766 66.4947 39.733 67.2276 40.0409 67.844L45.7629 79.2884C45.554 83.4946 42.0967 86.8591 37.8403 86.8591C33.45 86.8591 29.8781 83.2883 29.8781 78.8969V76.9065H25.897V78.8969C25.897 85.4829 31.2543 90.8402 37.8403 90.8402C41.9922 90.8402 45.6522 88.7086 47.7929 85.4848C49.9337 88.7086 53.5936 90.8402 57.7456 90.8402C64.3315 90.8402 69.6889 85.4829 69.6889 78.8969V76.9065H65.7078V78.8969H65.7084Z" fill="#333333"/>
<path d="M50.5441 68.9443L47.7933 74.4455L45.0427 68.9443H50.5441Z" fill="#D8D8D8"/>
</svg>
